# xmcd
#
# Track frame offsets:
#	150
#	14770
#	28902
#	44812
#	60986
#	71588
#	82494
#	98098
#	112082
#	128073
#	142419
#	161314
#	172072
#	187103
#	205189
#	220764
#	235435
#
# Disc length: 3294 seconds
#
# Revision: 3
# Processed by: cddbd v1.5.2PL0 Copyright (c) Steve Scherf et al.
# Submitted via: EasyCDDAExtractor 15.3.0.1
#
DISCID=0e0cdc11
DTITLE=The Music Of Nashville - Season 4, Volume 1
DYEAR=2015
DGENRE=Country
TTITLE0=Charles Esten - Like New
TTITLE1=Lennon Stella - Beyond The Sun
TTITLE2=Mark Collie - Holding On To What I Can't Hold
TTITLE3=Aubrey Peeples - Too Far From You
TTITLE4=Clare Bowen, Sam Palladio - Plenty Far To Fall
TTITLE5=Steven Tyler, Hayden Panettiere - Crazy
TTITLE6=Will Chase - Spinning Revolver
TTITLE7=Chris Carmack, Jonathan Jackson - Sleep Tonight (A Lullaby)
TTITLE8=Riley Smith - In The Name Of Your Love
TTITLE9=Chris Carmack - Run With Me
TTITLE10=Clare Bowen - Speak To Me
TTITLE11=Connie Britton, Riley Smith - I Want To (Do Everything For You)
TTITLE12=Jonathan Jackson - History Of My Heart
TTITLE13=Hayden Panettiere - What If It's You
TTITLE14=Sam Palladio - Count On Me
TTITLE15=Lennon and Maisy Stella - Rockin' and Rollin'
TTITLE16=Chaley Rose - Take My Hand Precious Lord
EXTD=
EXTT0=
EXTT1=
EXTT2=
EXTT3=
EXTT4=
EXTT5=
EXTT6=
EXTT7=
EXTT8=
EXTT9=
EXTT10=
EXTT11=
EXTT12=
EXTT13=
EXTT14=
EXTT15=
EXTT16=
PLAYORDER=
